<svg width="564" height="550" viewBox="0 0 564 550" fill="none" xmlns="http://www.w3.org/2000/svg">
<g clip-path="url(#clip0_2176_24282)">
<rect width="564" height="550" fill="#1A1A1A"/>
<path d="M363.506 -147.942L-451.558 322.635M445.013 -100.885L-370.051 369.693M526.519 -53.8268L-288.545 416.751M608.026 -6.76905L-207.038 463.808M689.532 40.2887L-125.532 510.866M771.038 87.3464L-44.0256 557.924M852.545 134.404L37.4808 604.982M934.051 181.462L118.987 652.039M1015.56 228.52L200.494 699.097M200.494 -147.942L1015.56 322.635M118.987 -100.885L934.051 369.693M37.4808 -53.8268L852.545 416.751M-44.0256 -6.76905L771.038 463.808M-125.532 40.2887L689.532 510.866M-207.038 87.3464L608.026 557.924M-288.545 134.404L526.519 604.982M-370.051 181.462L445.013 652.039M-451.558 228.52L363.506 699.097M282 -195L-533.064 275.577L282 746.155L1097.06 275.577L282 -195Z" stroke="white" stroke-width="0.2"/>
<path d="M197.693 325.003L343.5 240.818" stroke="#B193FC" stroke-width="2"/>
<path d="M195.693 327L233.193 305.349C235.669 303.919 238.718 303.919 241.193 305.349L349.193 367.702C351.669 369.131 354.718 369.131 357.193 367.702L469.193 303.039" stroke="#E1C665" stroke-width="2"/>
<path d="M157.193 348.501L215.193 315.015C220.527 311.936 220.527 304.238 215.193 301.159L127.693 250.64C122.36 247.561 122.36 239.863 127.693 236.784L188 201.965" stroke="#84D04D" stroke-width="2"/>
<path d="M109.033 282C112.859 279.791 119.063 279.791 122.889 282L270.113 367C273.94 369.209 273.94 372.791 270.113 375L232.008 397C228.182 399.209 221.978 399.209 218.152 397L70.9276 312C67.1013 309.791 67.1013 306.209 70.9276 304L109.033 282Z" fill="white" stroke="black"/>
<rect width="170" height="40" transform="matrix(0.866025 0.5 0 1 70.9277 312)" fill="#D9D9D9" stroke="black"/>
<rect width="44" height="40" transform="matrix(0.866025 -0.5 0 1 232.01 397)" fill="#B3B3B3" stroke="black"/>
<path d="M68.0586 308C68.0586 309.562 69.1553 310.976 70.9283 312V352C69.1553 350.976 68.0586 349.562 68.0586 348V308Z" fill="#D9D9D9" stroke="black"/>
<path d="M218.152 397C221.979 399.209 228.182 399.209 232.009 397V437C228.182 439.209 221.979 439.209 218.152 437V397Z" fill="#B3B3B3" stroke="black"/>
<path d="M272.985 371C272.985 372.562 271.888 373.976 270.115 375V415C271.888 413.976 272.985 412.562 272.985 411V371Z" fill="#B3B3B3" stroke="black"/>
<path d="M197.048 117C200.875 114.791 207.078 114.791 210.905 117L266.33 149C270.157 151.209 270.157 154.791 266.33 157L210.905 189C207.078 191.209 200.875 191.209 197.048 189L141.623 157C137.796 154.791 137.796 151.209 141.623 149L197.048 117Z" fill="#84D04D" stroke="black"/>
<rect width="64" height="40" transform="matrix(0.866025 0.5 0 1 141.623 157)" fill="#62A334" stroke="black"/>
<rect width="64" height="40" transform="matrix(0.866025 -0.5 0 1 210.904 189)" fill="#3D6222" stroke="black"/>
<path d="M138.752 153C138.752 154.562 139.849 155.976 141.622 157V197C139.849 195.976 138.752 194.562 138.752 193V153Z" fill="#62A334" stroke="black"/>
<path d="M197.049 189C200.875 191.209 207.079 191.209 210.905 189V229C207.079 231.209 200.875 231.209 197.049 229V189Z" fill="#3D6222" stroke="black"/>
<path d="M269.2 153C269.2 154.562 268.103 155.976 266.33 157V197C268.103 195.976 269.2 194.562 269.2 193V153Z" fill="#3D6222" stroke="black"/>
<path d="M424.047 254C427.874 251.791 434.077 251.791 437.904 254L493.329 286C497.156 288.209 497.156 291.791 493.329 294L437.904 326C434.077 328.209 427.874 328.209 424.047 326L368.622 294C364.795 291.791 364.795 288.209 368.622 286L424.047 254Z" fill="#FDEFBD" stroke="black"/>
<rect width="64" height="40" transform="matrix(0.866025 0.5 0 1 368.621 294)" fill="#FCE593" stroke="black"/>
<rect width="64" height="40" transform="matrix(0.866025 -0.5 0 1 437.903 326)" fill="#E1C665" stroke="black"/>
<path d="M365.752 290C365.752 291.562 366.849 292.976 368.622 294V334C366.849 332.976 365.752 331.562 365.752 330V290Z" fill="#FCE593" stroke="black"/>
<path d="M424.047 326C427.873 328.209 434.077 328.209 437.903 326V366C434.077 368.209 427.873 368.209 424.047 366V326Z" fill="#E1C665" stroke="black"/>
<path d="M496.199 290C496.199 291.562 495.102 292.976 493.329 294V334C495.102 332.976 496.199 331.562 496.199 330V290Z" fill="#E1C665" stroke="black"/>
<path d="M307.048 187C310.875 184.791 317.078 184.791 320.905 187L376.33 219C380.157 221.209 380.157 224.791 376.33 227L320.905 259C317.078 261.209 310.875 261.209 307.048 259L251.623 227C247.796 224.791 247.796 221.209 251.623 219L307.048 187Z" fill="#CFBDFD" stroke="black"/>
<rect width="64" height="40" transform="matrix(0.866025 0.5 0 1 251.623 227)" fill="#B193FC" stroke="black"/>
<rect width="64" height="40" transform="matrix(0.866025 -0.5 0 1 320.904 259)" fill="#8865E1" stroke="black"/>
<path d="M248.752 223C248.752 224.562 249.849 225.976 251.622 227V267C249.849 265.976 248.752 264.562 248.752 263V223Z" fill="#B193FC" stroke="black"/>
<path d="M307.049 259C310.875 261.209 317.079 261.209 320.905 259V299C317.079 301.209 310.875 301.209 307.049 299V259Z" fill="#8865E1" stroke="black"/>
<path d="M379.2 223C379.2 224.562 378.103 225.976 376.33 227V267C378.103 265.976 379.2 264.562 379.2 263V223Z" fill="#8865E1" stroke="black"/>
</g>
<defs>
<clipPath id="clip0_2176_24282">
<rect width="564" height="550" fill="white"/>
</clipPath>
</defs>
</svg>
