<svg width="675" height="651" viewBox="0 0 675 651" fill="none" xmlns="http://www.w3.org/2000/svg">
<line y1="-0.5" x2="68.1485" y2="-0.5" transform="matrix(0.689671 -0.724123 0.689671 0.724123 1 51)" stroke="#5A5A5A"/>
<line x1="47.5" y1="36.7148" x2="47.5" y2="1.65187" stroke="#5A5A5A"/>
<line x1="48" y1="1.5" x2="14.6053" y2="1.5" stroke="#5A5A5A"/>
<line y1="-0.5" x2="68.1485" y2="-0.5" transform="matrix(0.689671 -0.724123 0.689671 0.724123 58 51)" stroke="#5A5A5A"/>
<line x1="104.5" y1="36.7148" x2="104.5" y2="1.65187" stroke="#5A5A5A"/>
<line x1="105" y1="1.5" x2="71.6053" y2="1.5" stroke="#5A5A5A"/>
<line y1="-0.5" x2="68.1485" y2="-0.5" transform="matrix(0.689671 -0.724123 0.689671 0.724123 115 51)" stroke="#5A5A5A"/>
<line x1="161.5" y1="36.7148" x2="161.5" y2="1.65187" stroke="#5A5A5A"/>
<line x1="162" y1="1.5" x2="128.605" y2="1.5" stroke="#5A5A5A"/>
<line y1="-0.5" x2="68.1485" y2="-0.5" transform="matrix(0.689671 -0.724123 0.689671 0.724123 172 51)" stroke="#5A5A5A"/>
<line x1="218.5" y1="36.7148" x2="218.5" y2="1.65187" stroke="#5A5A5A"/>
<line x1="219" y1="1.5" x2="185.605" y2="1.5" stroke="#5A5A5A"/>
<line y1="-0.5" x2="68.1485" y2="-0.5" transform="matrix(0.689671 -0.724123 0.689671 0.724123 229 51)" stroke="#84D04D"/>
<line x1="275.5" y1="36.7148" x2="275.5" y2="1.65187" stroke="#84D04D"/>
<line x1="276" y1="1.5" x2="242.605" y2="1.5" stroke="#84D04D"/>
<line y1="-0.5" x2="68.1485" y2="-0.5" transform="matrix(0.689671 -0.724123 0.689671 0.724123 286 51)" stroke="#84D04D"/>
<line x1="332.5" y1="36.7148" x2="332.5" y2="1.65187" stroke="#84D04D"/>
<line x1="333" y1="1.5" x2="299.605" y2="1.5" stroke="#84D04D"/>
<line y1="-0.5" x2="68.1485" y2="-0.5" transform="matrix(0.689671 -0.724123 0.689671 0.724123 343 51)" stroke="#84D04D"/>
<line x1="389.5" y1="36.7148" x2="389.5" y2="1.65187" stroke="#84D04D"/>
<line x1="390" y1="1.5" x2="356.605" y2="1.5" stroke="#84D04D"/>
<line y1="-0.5" x2="68.1485" y2="-0.5" transform="matrix(0.689671 -0.724123 0.689671 0.724123 400 51)" stroke="#84D04D"/>
<line x1="446.5" y1="36.7148" x2="446.5" y2="1.65187" stroke="#84D04D"/>
<line x1="447" y1="1.5" x2="413.605" y2="1.5" stroke="#84D04D"/>
<line y1="-0.5" x2="68.1485" y2="-0.5" transform="matrix(0.689671 -0.724123 0.689671 0.724123 457 51)" stroke="#84D04D"/>
<line x1="503.5" y1="36.7148" x2="503.5" y2="1.65187" stroke="#84D04D"/>
<line x1="504" y1="1.5" x2="470.605" y2="1.5" stroke="#84D04D"/>
<line y1="-0.5" x2="68.1485" y2="-0.5" transform="matrix(0.689671 -0.724123 0.689671 0.724123 514 51)" stroke="#84D04D"/>
<line x1="560.5" y1="36.7148" x2="560.5" y2="1.65187" stroke="#84D04D"/>
<line x1="561" y1="1.5" x2="527.605" y2="1.5" stroke="#84D04D"/>
<line y1="-0.5" x2="68.1485" y2="-0.5" transform="matrix(0.689671 -0.724123 0.689671 0.724123 571 51)" stroke="#84D04D"/>
<line x1="617.5" y1="36.7148" x2="617.5" y2="1.65187" stroke="#84D04D"/>
<line x1="618" y1="1.5" x2="584.605" y2="1.5" stroke="#84D04D"/>
<line y1="-0.5" x2="68.1485" y2="-0.5" transform="matrix(0.689671 -0.724123 0.689671 0.724123 628 51)" stroke="#84D04D"/>
<line x1="674.5" y1="36.7148" x2="674.5" y2="1.65187" stroke="#84D04D"/>
<line x1="675" y1="1.5" x2="641.605" y2="1.5" stroke="#84D04D"/>
<line y1="-0.5" x2="68.1514" y2="-0.5" transform="matrix(0.689641 -0.724151 0.689641 0.724151 1 111)" stroke="#5A5A5A"/>
<line x1="47.5" y1="96.7148" x2="47.5" y2="61.649" stroke="#5A5A5A"/>
<line x1="48" y1="61.5" x2="14.6053" y2="61.5" stroke="#5A5A5A"/>
<line y1="-0.5" x2="68.1514" y2="-0.5" transform="matrix(0.689641 -0.724151 0.689641 0.724151 58 111)" stroke="#5A5A5A"/>
<line x1="104.5" y1="96.7148" x2="104.5" y2="61.649" stroke="#5A5A5A"/>
<line x1="105" y1="61.5" x2="71.6053" y2="61.5" stroke="#5A5A5A"/>
<line y1="-0.5" x2="68.1514" y2="-0.5" transform="matrix(0.689641 -0.724151 0.689641 0.724151 115 111)" stroke="#5A5A5A"/>
<line x1="161.5" y1="96.7148" x2="161.5" y2="61.649" stroke="#5A5A5A"/>
<line x1="162" y1="61.5" x2="128.605" y2="61.5" stroke="#5A5A5A"/>
<line y1="-0.5" x2="68.1514" y2="-0.5" transform="matrix(0.689641 -0.724151 0.689641 0.724151 172 111)" stroke="#5A5A5A"/>
<line x1="218.5" y1="96.7148" x2="218.5" y2="61.649" stroke="#5A5A5A"/>
<line x1="219" y1="61.5" x2="185.605" y2="61.5" stroke="#5A5A5A"/>
<line y1="-0.5" x2="68.1514" y2="-0.5" transform="matrix(0.689641 -0.724151 0.689641 0.724151 229 111)" stroke="#5A5A5A"/>
<line x1="275.5" y1="96.7148" x2="275.5" y2="61.649" stroke="#5A5A5A"/>
<line x1="276" y1="61.5" x2="242.605" y2="61.5" stroke="#5A5A5A"/>
<line y1="-0.5" x2="68.1514" y2="-0.5" transform="matrix(0.689641 -0.724151 0.689641 0.724151 286 111)" stroke="#5A5A5A"/>
<line x1="332.5" y1="96.7148" x2="332.5" y2="61.649" stroke="#5A5A5A"/>
<line x1="333" y1="61.5" x2="299.605" y2="61.5" stroke="#5A5A5A"/>
<line y1="-0.5" x2="68.1514" y2="-0.5" transform="matrix(0.689641 -0.724151 0.689641 0.724151 343 111)" stroke="#84D04D"/>
<line x1="389.5" y1="96.7148" x2="389.5" y2="61.649" stroke="#84D04D"/>
<line x1="390" y1="61.5" x2="356.605" y2="61.5" stroke="#84D04D"/>
<line y1="-0.5" x2="68.1514" y2="-0.5" transform="matrix(0.689641 -0.724151 0.689641 0.724151 400 111)" stroke="#84D04D"/>
<line x1="446.5" y1="96.7148" x2="446.5" y2="61.649" stroke="#84D04D"/>
<line x1="447" y1="61.5" x2="413.605" y2="61.5" stroke="#84D04D"/>
<line y1="-0.5" x2="68.1514" y2="-0.5" transform="matrix(0.689641 -0.724151 0.689641 0.724151 457 111)" stroke="#84D04D"/>
<line x1="503.5" y1="96.7148" x2="503.5" y2="61.649" stroke="#84D04D"/>
<line x1="504" y1="61.5" x2="470.605" y2="61.5" stroke="#84D04D"/>
<line y1="-0.5" x2="68.1514" y2="-0.5" transform="matrix(0.689641 -0.724151 0.689641 0.724151 514 111)" stroke="#84D04D"/>
<line x1="560.5" y1="96.7148" x2="560.5" y2="61.649" stroke="#84D04D"/>
<line x1="561" y1="61.5" x2="527.605" y2="61.5" stroke="#84D04D"/>
<line y1="-0.5" x2="68.1514" y2="-0.5" transform="matrix(0.689641 -0.724151 0.689641 0.724151 571 111)" stroke="#84D04D"/>
<line x1="617.5" y1="96.7148" x2="617.5" y2="61.649" stroke="#84D04D"/>
<line x1="618" y1="61.5" x2="584.605" y2="61.5" stroke="#84D04D"/>
<line y1="-0.5" x2="68.1514" y2="-0.5" transform="matrix(0.689641 -0.724151 0.689641 0.724151 628 111)" stroke="#84D04D"/>
<line x1="674.5" y1="96.7148" x2="674.5" y2="61.649" stroke="#84D04D"/>
<line x1="675" y1="61.5" x2="641.605" y2="61.5" stroke="#84D04D"/>
<line y1="-0.5" x2="68.1514" y2="-0.5" transform="matrix(0.689641 -0.724151 0.689641 0.724151 1 231)" stroke="#5A5A5A"/>
<line x1="47.5" y1="216.715" x2="47.5" y2="181.649" stroke="#5A5A5A"/>
<line x1="48" y1="181.5" x2="14.6053" y2="181.5" stroke="#5A5A5A"/>
<line y1="-0.5" x2="68.1514" y2="-0.5" transform="matrix(0.689641 -0.724151 0.689641 0.724151 115 231)" stroke="#5A5A5A"/>
<line x1="161.5" y1="216.715" x2="161.5" y2="181.649" stroke="#5A5A5A"/>
<line x1="162" y1="181.5" x2="128.605" y2="181.5" stroke="#5A5A5A"/>
<line y1="-0.5" x2="68.1514" y2="-0.5" transform="matrix(0.689641 -0.724151 0.689641 0.724151 172 231)" stroke="#5A5A5A"/>
<line x1="218.5" y1="216.715" x2="218.5" y2="181.649" stroke="#5A5A5A"/>
<line x1="219" y1="181.5" x2="185.605" y2="181.5" stroke="#5A5A5A"/>
<line y1="-0.5" x2="68.1514" y2="-0.5" transform="matrix(0.689641 -0.724151 0.689641 0.724151 229 231)" stroke="#5A5A5A"/>
<line x1="275.5" y1="216.715" x2="275.5" y2="181.649" stroke="#5A5A5A"/>
<line x1="276" y1="181.5" x2="242.605" y2="181.5" stroke="#5A5A5A"/>
<line y1="-0.5" x2="68.1514" y2="-0.5" transform="matrix(0.689641 -0.724151 0.689641 0.724151 286 231)" stroke="#5A5A5A"/>
<line x1="332.5" y1="216.715" x2="332.5" y2="181.649" stroke="#5A5A5A"/>
<line x1="333" y1="181.5" x2="299.605" y2="181.5" stroke="#5A5A5A"/>
<line y1="-0.5" x2="68.1514" y2="-0.5" transform="matrix(0.689641 -0.724151 0.689641 0.724151 343 231)" stroke="#5A5A5A"/>
<line x1="389.5" y1="216.715" x2="389.5" y2="181.649" stroke="#5A5A5A"/>
<line x1="390" y1="181.5" x2="356.605" y2="181.5" stroke="#5A5A5A"/>
<line y1="-0.5" x2="68.1514" y2="-0.5" transform="matrix(0.689641 -0.724151 0.689641 0.724151 400 231)" stroke="#84D04D"/>
<line x1="446.5" y1="216.715" x2="446.5" y2="181.649" stroke="#84D04D"/>
<line x1="447" y1="181.5" x2="413.605" y2="181.5" stroke="#84D04D"/>
<line y1="-0.5" x2="68.1514" y2="-0.5" transform="matrix(0.689641 -0.724151 0.689641 0.724151 457 231)" stroke="#5A5A5A"/>
<line x1="503.5" y1="216.715" x2="503.5" y2="181.649" stroke="#5A5A5A"/>
<line x1="504" y1="181.5" x2="470.605" y2="181.5" stroke="#5A5A5A"/>
<line y1="-0.5" x2="68.1514" y2="-0.5" transform="matrix(0.689641 -0.724151 0.689641 0.724151 514 231)" stroke="#5A5A5A"/>
<line x1="560.5" y1="216.715" x2="560.5" y2="181.649" stroke="#5A5A5A"/>
<line x1="561" y1="181.5" x2="527.605" y2="181.5" stroke="#5A5A5A"/>
<line y1="-0.5" x2="68.1514" y2="-0.5" transform="matrix(0.689641 -0.724151 0.689641 0.724151 571 231)" stroke="#84D04D"/>
<line x1="617.5" y1="216.715" x2="617.5" y2="181.649" stroke="#84D04D"/>
<line x1="618" y1="181.5" x2="584.605" y2="181.5" stroke="#84D04D"/>
<line y1="-0.5" x2="68.1514" y2="-0.5" transform="matrix(0.689641 -0.724151 0.689641 0.724151 628 231)" stroke="#84D04D"/>
<line x1="674.5" y1="216.715" x2="674.5" y2="181.649" stroke="#84D04D"/>
<line x1="675" y1="181.5" x2="641.605" y2="181.5" stroke="#84D04D"/>
<line y1="-0.5" x2="68.1514" y2="-0.5" transform="matrix(0.689641 -0.724151 0.689641 0.724151 1 171)" stroke="#5A5A5A"/>
<line x1="47.5" y1="156.715" x2="47.5" y2="121.649" stroke="#5A5A5A"/>
<line x1="48" y1="121.5" x2="14.6053" y2="121.5" stroke="#5A5A5A"/>
<line y1="-0.5" x2="68.1514" y2="-0.5" transform="matrix(0.689641 -0.724151 0.689641 0.724151 58 171)" stroke="#5A5A5A"/>
<line x1="104.5" y1="156.715" x2="104.5" y2="121.649" stroke="#5A5A5A"/>
<line x1="105" y1="121.5" x2="71.6053" y2="121.5" stroke="#5A5A5A"/>
<line y1="-0.5" x2="68.1514" y2="-0.5" transform="matrix(0.689641 -0.724151 0.689641 0.724151 172 171)" stroke="#5A5A5A"/>
<line x1="218.5" y1="156.715" x2="218.5" y2="121.649" stroke="#5A5A5A"/>
<line x1="219" y1="121.5" x2="185.605" y2="121.5" stroke="#5A5A5A"/>
<line y1="-0.5" x2="68.1514" y2="-0.5" transform="matrix(0.689641 -0.724151 0.689641 0.724151 229 171)" stroke="#5A5A5A"/>
<line x1="275.5" y1="156.715" x2="275.5" y2="121.649" stroke="#5A5A5A"/>
<line x1="276" y1="121.5" x2="242.605" y2="121.5" stroke="#5A5A5A"/>
<line y1="-0.5" x2="68.1514" y2="-0.5" transform="matrix(0.689641 -0.724151 0.689641 0.724151 286 171)" stroke="#84D04D"/>
<line x1="332.5" y1="156.715" x2="332.5" y2="121.649" stroke="#84D04D"/>
<line x1="333" y1="121.5" x2="299.605" y2="121.5" stroke="#84D04D"/>
<line y1="-0.5" x2="68.1514" y2="-0.5" transform="matrix(0.689641 -0.724151 0.689641 0.724151 343 171)" stroke="#5A5A5A"/>
<line x1="389.5" y1="156.715" x2="389.5" y2="121.649" stroke="#5A5A5A"/>
<line x1="390" y1="121.5" x2="356.605" y2="121.5" stroke="#5A5A5A"/>
<line y1="-0.5" x2="68.1514" y2="-0.5" transform="matrix(0.689641 -0.724151 0.689641 0.724151 400 171)" stroke="#5A5A5A"/>
<line x1="446.5" y1="156.715" x2="446.5" y2="121.649" stroke="#5A5A5A"/>
<line x1="447" y1="121.5" x2="413.605" y2="121.5" stroke="#5A5A5A"/>
<line y1="-0.5" x2="68.1514" y2="-0.5" transform="matrix(0.689641 -0.724151 0.689641 0.724151 457 171)" stroke="#84D04D"/>
<line x1="503.5" y1="156.715" x2="503.5" y2="121.649" stroke="#84D04D"/>
<line x1="504" y1="121.5" x2="470.605" y2="121.5" stroke="#84D04D"/>
<line y1="-0.5" x2="68.1514" y2="-0.5" transform="matrix(0.689641 -0.724151 0.689641 0.724151 514 171)" stroke="#84D04D"/>
<line x1="560.5" y1="156.715" x2="560.5" y2="121.649" stroke="#84D04D"/>
<line x1="561" y1="121.5" x2="527.605" y2="121.5" stroke="#84D04D"/>
<line y1="-0.5" x2="68.1514" y2="-0.5" transform="matrix(0.689641 -0.724151 0.689641 0.724151 571 171)" stroke="#84D04D"/>
<line x1="617.5" y1="156.715" x2="617.5" y2="121.649" stroke="#84D04D"/>
<line x1="618" y1="121.5" x2="584.605" y2="121.5" stroke="#84D04D"/>
<line y1="-0.5" x2="68.1514" y2="-0.5" transform="matrix(0.689641 -0.724151 0.689641 0.724151 628 171)" stroke="#84D04D"/>
<line x1="674.5" y1="156.715" x2="674.5" y2="121.649" stroke="#84D04D"/>
<line x1="675" y1="121.5" x2="641.605" y2="121.5" stroke="#84D04D"/>
<line y1="-0.5" x2="68.1514" y2="-0.5" transform="matrix(0.689641 -0.724151 0.689641 0.724151 1 291)" stroke="#5A5A5A"/>
<line x1="47.5" y1="276.715" x2="47.5" y2="241.649" stroke="#5A5A5A"/>
<line x1="48" y1="241.5" x2="14.6053" y2="241.5" stroke="#5A5A5A"/>
<line y1="-0.5" x2="68.1514" y2="-0.5" transform="matrix(0.689641 -0.724151 0.689641 0.724151 58 291)" stroke="#5A5A5A"/>
<line x1="104.5" y1="276.715" x2="104.5" y2="241.649" stroke="#5A5A5A"/>
<line x1="105" y1="241.5" x2="71.6053" y2="241.5" stroke="#5A5A5A"/>
<line y1="-0.5" x2="68.1514" y2="-0.5" transform="matrix(0.689641 -0.724151 0.689641 0.724151 115 291)" stroke="#5A5A5A"/>
<line x1="161.5" y1="276.715" x2="161.5" y2="241.649" stroke="#5A5A5A"/>
<line x1="162" y1="241.5" x2="128.605" y2="241.5" stroke="#5A5A5A"/>
<line y1="-0.5" x2="68.1514" y2="-0.5" transform="matrix(0.689641 -0.724151 0.689641 0.724151 172 291)" stroke="#5A5A5A"/>
<line x1="218.5" y1="276.715" x2="218.5" y2="241.649" stroke="#5A5A5A"/>
<line x1="219" y1="241.5" x2="185.605" y2="241.5" stroke="#5A5A5A"/>
<line y1="-0.5" x2="68.1514" y2="-0.5" transform="matrix(0.689641 -0.724151 0.689641 0.724151 229 291)" stroke="#5A5A5A"/>
<line x1="275.5" y1="276.715" x2="275.5" y2="241.649" stroke="#5A5A5A"/>
<line x1="276" y1="241.5" x2="242.605" y2="241.5" stroke="#5A5A5A"/>
<line y1="-0.5" x2="68.1514" y2="-0.5" transform="matrix(0.689641 -0.724151 0.689641 0.724151 286 291)" stroke="#5A5A5A"/>
<line x1="332.5" y1="276.715" x2="332.5" y2="241.649" stroke="#5A5A5A"/>
<line x1="333" y1="241.5" x2="299.605" y2="241.5" stroke="#5A5A5A"/>
<line y1="-0.5" x2="68.1514" y2="-0.5" transform="matrix(0.689641 -0.724151 0.689641 0.724151 343 291)" stroke="#5A5A5A"/>
<line x1="389.5" y1="276.715" x2="389.5" y2="241.649" stroke="#5A5A5A"/>
<line x1="390" y1="241.5" x2="356.605" y2="241.5" stroke="#5A5A5A"/>
<line y1="-0.5" x2="68.1514" y2="-0.5" transform="matrix(0.689641 -0.724151 0.689641 0.724151 400 291)" stroke="#5A5A5A"/>
<line x1="446.5" y1="276.715" x2="446.5" y2="241.649" stroke="#5A5A5A"/>
<line x1="447" y1="241.5" x2="413.605" y2="241.5" stroke="#5A5A5A"/>
<line y1="-0.5" x2="68.1514" y2="-0.5" transform="matrix(0.689641 -0.724151 0.689641 0.724151 457 291)" stroke="#5A5A5A"/>
<line x1="503.5" y1="276.715" x2="503.5" y2="241.649" stroke="#5A5A5A"/>
<line x1="504" y1="241.5" x2="470.605" y2="241.5" stroke="#5A5A5A"/>
<line y1="-0.5" x2="68.1514" y2="-0.5" transform="matrix(0.689641 -0.724151 0.689641 0.724151 514 291)" stroke="#84D04D"/>
<line x1="560.5" y1="276.715" x2="560.5" y2="241.649" stroke="#84D04D"/>
<line x1="561" y1="241.5" x2="527.605" y2="241.5" stroke="#84D04D"/>
<line y1="-0.5" x2="68.1514" y2="-0.5" transform="matrix(0.689641 -0.724151 0.689641 0.724151 571 291)" stroke="#84D04D"/>
<line x1="617.5" y1="276.715" x2="617.5" y2="241.649" stroke="#84D04D"/>
<line x1="618" y1="241.5" x2="584.605" y2="241.5" stroke="#84D04D"/>
<line y1="-0.5" x2="68.1514" y2="-0.5" transform="matrix(0.689641 -0.724151 0.689641 0.724151 628 291)" stroke="#84D04D"/>
<line x1="674.5" y1="276.715" x2="674.5" y2="241.649" stroke="#84D04D"/>
<line x1="675" y1="241.5" x2="641.605" y2="241.5" stroke="#84D04D"/>
<line y1="-0.5" x2="68.1514" y2="-0.5" transform="matrix(0.689641 -0.724151 0.689641 0.724151 1 351)" stroke="#5A5A5A"/>
<line x1="47.5" y1="336.715" x2="47.5" y2="301.649" stroke="#5A5A5A"/>
<line x1="48" y1="301.5" x2="14.6053" y2="301.5" stroke="#5A5A5A"/>
<line y1="-0.5" x2="68.1514" y2="-0.5" transform="matrix(0.689641 -0.724151 0.689641 0.724151 58 351)" stroke="#5A5A5A"/>
<line x1="104.5" y1="336.715" x2="104.5" y2="301.649" stroke="#5A5A5A"/>
<line x1="105" y1="301.5" x2="71.6053" y2="301.5" stroke="#5A5A5A"/>
<line y1="-0.5" x2="68.1514" y2="-0.5" transform="matrix(0.689641 -0.724151 0.689641 0.724151 172 351)" stroke="#5A5A5A"/>
<line x1="218.5" y1="336.715" x2="218.5" y2="301.649" stroke="#5A5A5A"/>
<line x1="219" y1="301.5" x2="185.605" y2="301.5" stroke="#5A5A5A"/>
<line y1="-0.5" x2="68.1514" y2="-0.5" transform="matrix(0.689641 -0.724151 0.689641 0.724151 229 351)" stroke="#5A5A5A"/>
<line x1="275.5" y1="336.715" x2="275.5" y2="301.649" stroke="#5A5A5A"/>
<line x1="276" y1="301.5" x2="242.605" y2="301.5" stroke="#5A5A5A"/>
<line y1="-0.5" x2="68.1514" y2="-0.5" transform="matrix(0.689641 -0.724151 0.689641 0.724151 286 351)" stroke="#5A5A5A"/>
<line x1="332.5" y1="336.715" x2="332.5" y2="301.649" stroke="#5A5A5A"/>
<line x1="333" y1="301.5" x2="299.605" y2="301.5" stroke="#5A5A5A"/>
<line y1="-0.5" x2="68.1514" y2="-0.5" transform="matrix(0.689641 -0.724151 0.689641 0.724151 343 351)" stroke="#5A5A5A"/>
<line x1="389.5" y1="336.715" x2="389.5" y2="301.649" stroke="#5A5A5A"/>
<line x1="390" y1="301.5" x2="356.605" y2="301.5" stroke="#5A5A5A"/>
<line y1="-0.5" x2="68.1514" y2="-0.5" transform="matrix(0.689641 -0.724151 0.689641 0.724151 400 351)" stroke="#5A5A5A"/>
<line x1="446.5" y1="336.715" x2="446.5" y2="301.649" stroke="#5A5A5A"/>
<line x1="447" y1="301.5" x2="413.605" y2="301.5" stroke="#5A5A5A"/>
<line y1="-0.5" x2="68.1514" y2="-0.5" transform="matrix(0.689641 -0.724151 0.689641 0.724151 457 351)" stroke="#5A5A5A"/>
<line x1="503.5" y1="336.715" x2="503.5" y2="301.649" stroke="#5A5A5A"/>
<line x1="504" y1="301.5" x2="470.605" y2="301.5" stroke="#5A5A5A"/>
<line y1="-0.5" x2="68.1514" y2="-0.5" transform="matrix(0.689641 -0.724151 0.689641 0.724151 514 351)" stroke="#5A5A5A"/>
<line x1="560.5" y1="336.715" x2="560.5" y2="301.649" stroke="#5A5A5A"/>
<line x1="561" y1="301.5" x2="527.605" y2="301.5" stroke="#5A5A5A"/>
<line y1="-0.5" x2="68.1514" y2="-0.5" transform="matrix(0.689641 -0.724151 0.689641 0.724151 571 351)" stroke="#84D04D"/>
<line x1="617.5" y1="336.715" x2="617.5" y2="301.649" stroke="#84D04D"/>
<line x1="618" y1="301.5" x2="584.605" y2="301.5" stroke="#84D04D"/>
<line y1="-0.5" x2="68.1514" y2="-0.5" transform="matrix(0.689641 -0.724151 0.689641 0.724151 628 351)" stroke="#84D04D"/>
<line x1="674.5" y1="336.715" x2="674.5" y2="301.649" stroke="#84D04D"/>
<line x1="675" y1="301.5" x2="641.605" y2="301.5" stroke="#84D04D"/>
<line y1="-0.5" x2="68.1514" y2="-0.5" transform="matrix(0.689641 -0.724151 0.689641 0.724151 58 411)" stroke="#5A5A5A"/>
<line x1="104.5" y1="396.715" x2="104.5" y2="361.649" stroke="#5A5A5A"/>
<line x1="105" y1="361.5" x2="71.6053" y2="361.5" stroke="#5A5A5A"/>
<line y1="-0.5" x2="68.1514" y2="-0.5" transform="matrix(0.689641 -0.724151 0.689641 0.724151 115 411)" stroke="#5A5A5A"/>
<line x1="161.5" y1="396.715" x2="161.5" y2="361.649" stroke="#5A5A5A"/>
<line x1="162" y1="361.5" x2="128.605" y2="361.5" stroke="#5A5A5A"/>
<line y1="-0.5" x2="68.1514" y2="-0.5" transform="matrix(0.689641 -0.724151 0.689641 0.724151 172 411)" stroke="#5A5A5A"/>
<line x1="218.5" y1="396.715" x2="218.5" y2="361.649" stroke="#5A5A5A"/>
<line x1="219" y1="361.5" x2="185.605" y2="361.5" stroke="#5A5A5A"/>
<line y1="-0.5" x2="68.1514" y2="-0.5" transform="matrix(0.689641 -0.724151 0.689641 0.724151 229 411)" stroke="#5A5A5A"/>
<line x1="275.5" y1="396.715" x2="275.5" y2="361.649" stroke="#5A5A5A"/>
<line x1="276" y1="361.5" x2="242.605" y2="361.5" stroke="#5A5A5A"/>
<line y1="-0.5" x2="68.1514" y2="-0.5" transform="matrix(0.689641 -0.724151 0.689641 0.724151 286 411)" stroke="#5A5A5A"/>
<line x1="332.5" y1="396.715" x2="332.5" y2="361.649" stroke="#5A5A5A"/>
<line x1="333" y1="361.5" x2="299.605" y2="361.5" stroke="#5A5A5A"/>
<line y1="-0.5" x2="68.1514" y2="-0.5" transform="matrix(0.689641 -0.724151 0.689641 0.724151 343 411)" stroke="#5A5A5A"/>
<line x1="389.5" y1="396.715" x2="389.5" y2="361.649" stroke="#5A5A5A"/>
<line x1="390" y1="361.5" x2="356.605" y2="361.5" stroke="#5A5A5A"/>
<line y1="-0.5" x2="68.1514" y2="-0.5" transform="matrix(0.689641 -0.724151 0.689641 0.724151 400 411)" stroke="#5A5A5A"/>
<line x1="446.5" y1="396.715" x2="446.5" y2="361.649" stroke="#5A5A5A"/>
<line x1="447" y1="361.5" x2="413.605" y2="361.5" stroke="#5A5A5A"/>
<line y1="-0.5" x2="68.1514" y2="-0.5" transform="matrix(0.689641 -0.724151 0.689641 0.724151 457 411)" stroke="#84D04D"/>
<line x1="503.5" y1="396.715" x2="503.5" y2="361.649" stroke="#84D04D"/>
<line x1="504" y1="361.5" x2="470.605" y2="361.5" stroke="#84D04D"/>
<line y1="-0.5" x2="68.1514" y2="-0.5" transform="matrix(0.689641 -0.724151 0.689641 0.724151 514 411)" stroke="#5A5A5A"/>
<line x1="560.5" y1="396.715" x2="560.5" y2="361.649" stroke="#5A5A5A"/>
<line x1="561" y1="361.5" x2="527.605" y2="361.5" stroke="#5A5A5A"/>
<line y1="-0.5" x2="68.1514" y2="-0.5" transform="matrix(0.689641 -0.724151 0.689641 0.724151 571 411)" stroke="#5A5A5A"/>
<line x1="617.5" y1="396.715" x2="617.5" y2="361.649" stroke="#5A5A5A"/>
<line x1="618" y1="361.5" x2="584.605" y2="361.5" stroke="#5A5A5A"/>
<line y1="-0.5" x2="68.1514" y2="-0.5" transform="matrix(0.689641 -0.724151 0.689641 0.724151 628 411)" stroke="#84D04D"/>
<line x1="674.5" y1="396.715" x2="674.5" y2="361.649" stroke="#84D04D"/>
<line x1="675" y1="361.5" x2="641.605" y2="361.5" stroke="#84D04D"/>
<line y1="-0.5" x2="68.1485" y2="-0.5" transform="matrix(0.689671 -0.724123 0.689671 0.724123 1 471)" stroke="#5A5A5A"/>
<line x1="47.5" y1="456.715" x2="47.5" y2="421.652" stroke="#5A5A5A"/>
<line x1="48" y1="421.5" x2="14.6053" y2="421.5" stroke="#5A5A5A"/>
<line y1="-0.5" x2="68.1485" y2="-0.5" transform="matrix(0.689671 -0.724123 0.689671 0.724123 58 471)" stroke="#5A5A5A"/>
<line x1="104.5" y1="456.715" x2="104.5" y2="421.652" stroke="#5A5A5A"/>
<line x1="105" y1="421.5" x2="71.6053" y2="421.5" stroke="#5A5A5A"/>
<line y1="-0.5" x2="68.1485" y2="-0.5" transform="matrix(0.689671 -0.724123 0.689671 0.724123 115 471)" stroke="#5A5A5A"/>
<line x1="161.5" y1="456.715" x2="161.5" y2="421.652" stroke="#5A5A5A"/>
<line x1="162" y1="421.5" x2="128.605" y2="421.5" stroke="#5A5A5A"/>
<line y1="-0.5" x2="68.1485" y2="-0.5" transform="matrix(0.689671 -0.724123 0.689671 0.724123 172 471)" stroke="#5A5A5A"/>
<line x1="218.5" y1="456.715" x2="218.5" y2="421.652" stroke="#5A5A5A"/>
<line x1="219" y1="421.5" x2="185.605" y2="421.5" stroke="#5A5A5A"/>
<line y1="-0.5" x2="68.1485" y2="-0.5" transform="matrix(0.689671 -0.724123 0.689671 0.724123 229 471)" stroke="#5A5A5A"/>
<line x1="275.5" y1="456.715" x2="275.5" y2="421.652" stroke="#5A5A5A"/>
<line x1="276" y1="421.5" x2="242.605" y2="421.5" stroke="#5A5A5A"/>
<line y1="-0.5" x2="68.1485" y2="-0.5" transform="matrix(0.689671 -0.724123 0.689671 0.724123 343 471)" stroke="#5A5A5A"/>
<line x1="389.5" y1="456.715" x2="389.5" y2="421.652" stroke="#5A5A5A"/>
<line x1="390" y1="421.5" x2="356.605" y2="421.5" stroke="#5A5A5A"/>
<line y1="-0.5" x2="68.1485" y2="-0.5" transform="matrix(0.689671 -0.724123 0.689671 0.724123 400 471)" stroke="#5A5A5A"/>
<line x1="446.5" y1="456.715" x2="446.5" y2="421.652" stroke="#5A5A5A"/>
<line x1="447" y1="421.5" x2="413.605" y2="421.5" stroke="#5A5A5A"/>
<line y1="-0.5" x2="68.1485" y2="-0.5" transform="matrix(0.689671 -0.724123 0.689671 0.724123 457 471)" stroke="#5A5A5A"/>
<line x1="503.5" y1="456.715" x2="503.5" y2="421.652" stroke="#5A5A5A"/>
<line x1="504" y1="421.5" x2="470.605" y2="421.5" stroke="#5A5A5A"/>
<line y1="-0.5" x2="68.1485" y2="-0.5" transform="matrix(0.689671 -0.724123 0.689671 0.724123 514 471)" stroke="#5A5A5A"/>
<line x1="560.5" y1="456.715" x2="560.5" y2="421.652" stroke="#5A5A5A"/>
<line x1="561" y1="421.5" x2="527.605" y2="421.5" stroke="#5A5A5A"/>
<line y1="-0.5" x2="68.1485" y2="-0.5" transform="matrix(0.689671 -0.724123 0.689671 0.724123 571 471)" stroke="#5A5A5A"/>
<line x1="617.5" y1="456.715" x2="617.5" y2="421.652" stroke="#5A5A5A"/>
<line x1="618" y1="421.5" x2="584.605" y2="421.5" stroke="#5A5A5A"/>
<line y1="-0.5" x2="68.1485" y2="-0.5" transform="matrix(0.689671 -0.724123 0.689671 0.724123 628 471)" stroke="#5A5A5A"/>
<line x1="674.5" y1="456.715" x2="674.5" y2="421.652" stroke="#5A5A5A"/>
<line x1="675" y1="421.5" x2="641.605" y2="421.5" stroke="#5A5A5A"/>
<line y1="-0.5" x2="68.1485" y2="-0.5" transform="matrix(0.689671 -0.724123 0.689671 0.724123 1 531)" stroke="#5A5A5A"/>
<line x1="47.5" y1="516.715" x2="47.5" y2="481.652" stroke="#5A5A5A"/>
<line x1="48" y1="481.5" x2="14.6053" y2="481.5" stroke="#5A5A5A"/>
<line y1="-0.5" x2="68.1485" y2="-0.5" transform="matrix(0.689671 -0.724123 0.689671 0.724123 172 531)" stroke="#5A5A5A"/>
<line x1="218.5" y1="516.715" x2="218.5" y2="481.652" stroke="#5A5A5A"/>
<line x1="219" y1="481.5" x2="185.605" y2="481.5" stroke="#5A5A5A"/>
<line y1="-0.5" x2="68.1485" y2="-0.5" transform="matrix(0.689671 -0.724123 0.689671 0.724123 229 531)" stroke="#5A5A5A"/>
<line x1="275.5" y1="516.715" x2="275.5" y2="481.652" stroke="#5A5A5A"/>
<line x1="276" y1="481.5" x2="242.605" y2="481.5" stroke="#5A5A5A"/>
<line y1="-0.5" x2="68.1485" y2="-0.5" transform="matrix(0.689671 -0.724123 0.689671 0.724123 286 531)" stroke="#5A5A5A"/>
<line x1="332.5" y1="516.715" x2="332.5" y2="481.652" stroke="#5A5A5A"/>
<line x1="333" y1="481.5" x2="299.605" y2="481.5" stroke="#5A5A5A"/>
<line y1="-0.5" x2="68.1485" y2="-0.5" transform="matrix(0.689671 -0.724123 0.689671 0.724123 343 531)" stroke="#5A5A5A"/>
<line x1="389.5" y1="516.715" x2="389.5" y2="481.652" stroke="#5A5A5A"/>
<line x1="390" y1="481.5" x2="356.605" y2="481.5" stroke="#5A5A5A"/>
<line y1="-0.5" x2="68.1485" y2="-0.5" transform="matrix(0.689671 -0.724123 0.689671 0.724123 400 531)" stroke="#5A5A5A"/>
<line x1="446.5" y1="516.715" x2="446.5" y2="481.652" stroke="#5A5A5A"/>
<line x1="447" y1="481.5" x2="413.605" y2="481.5" stroke="#5A5A5A"/>
<line y1="-0.5" x2="68.1485" y2="-0.5" transform="matrix(0.689671 -0.724123 0.689671 0.724123 457 531)" stroke="#5A5A5A"/>
<line x1="503.5" y1="516.715" x2="503.5" y2="481.652" stroke="#5A5A5A"/>
<line x1="504" y1="481.5" x2="470.605" y2="481.5" stroke="#5A5A5A"/>
<line y1="-0.5" x2="68.1485" y2="-0.5" transform="matrix(0.689671 -0.724123 0.689671 0.724123 571 531)" stroke="#5A5A5A"/>
<line x1="617.5" y1="516.715" x2="617.5" y2="481.652" stroke="#5A5A5A"/>
<line x1="618" y1="481.5" x2="584.605" y2="481.5" stroke="#5A5A5A"/>
<line y1="-0.5" x2="68.1485" y2="-0.5" transform="matrix(0.689671 -0.724123 0.689671 0.724123 628 531)" stroke="#5A5A5A"/>
<line x1="674.5" y1="516.715" x2="674.5" y2="481.652" stroke="#5A5A5A"/>
<line x1="675" y1="481.5" x2="641.605" y2="481.5" stroke="#5A5A5A"/>
<line y1="-0.5" x2="68.1485" y2="-0.5" transform="matrix(0.689671 -0.724123 0.689671 0.724123 1 591)" stroke="#5A5A5A"/>
<line x1="47.5" y1="576.715" x2="47.5" y2="541.652" stroke="#5A5A5A"/>
<line x1="48" y1="541.5" x2="14.6053" y2="541.5" stroke="#5A5A5A"/>
<line y1="-0.5" x2="68.1485" y2="-0.5" transform="matrix(0.689671 -0.724123 0.689671 0.724123 58 591)" stroke="#5A5A5A"/>
<line x1="104.5" y1="576.715" x2="104.5" y2="541.652" stroke="#5A5A5A"/>
<line x1="105" y1="541.5" x2="71.6053" y2="541.5" stroke="#5A5A5A"/>
<line y1="-0.5" x2="68.1485" y2="-0.5" transform="matrix(0.689671 -0.724123 0.689671 0.724123 115 591)" stroke="#5A5A5A"/>
<line x1="161.5" y1="576.715" x2="161.5" y2="541.652" stroke="#5A5A5A"/>
<line x1="162" y1="541.5" x2="128.605" y2="541.5" stroke="#5A5A5A"/>
<line y1="-0.5" x2="68.1485" y2="-0.5" transform="matrix(0.689671 -0.724123 0.689671 0.724123 172 591)" stroke="#5A5A5A"/>
<line x1="218.5" y1="576.715" x2="218.5" y2="541.652" stroke="#5A5A5A"/>
<line x1="219" y1="541.5" x2="185.605" y2="541.5" stroke="#5A5A5A"/>
<line y1="-0.5" x2="68.1485" y2="-0.5" transform="matrix(0.689671 -0.724123 0.689671 0.724123 286 591)" stroke="#5A5A5A"/>
<line x1="332.5" y1="576.715" x2="332.5" y2="541.652" stroke="#5A5A5A"/>
<line x1="333" y1="541.5" x2="299.605" y2="541.5" stroke="#5A5A5A"/>
<line y1="-0.5" x2="68.1485" y2="-0.5" transform="matrix(0.689671 -0.724123 0.689671 0.724123 400 591)" stroke="#5A5A5A"/>
<line x1="446.5" y1="576.715" x2="446.5" y2="541.652" stroke="#5A5A5A"/>
<line x1="447" y1="541.5" x2="413.605" y2="541.5" stroke="#5A5A5A"/>
<line y1="-0.5" x2="68.1485" y2="-0.5" transform="matrix(0.689671 -0.724123 0.689671 0.724123 457 591)" stroke="#5A5A5A"/>
<line x1="503.5" y1="576.715" x2="503.5" y2="541.652" stroke="#5A5A5A"/>
<line x1="504" y1="541.5" x2="470.605" y2="541.5" stroke="#5A5A5A"/>
<line y1="-0.5" x2="68.1485" y2="-0.5" transform="matrix(0.689671 -0.724123 0.689671 0.724123 514 591)" stroke="#5A5A5A"/>
<line x1="560.5" y1="576.715" x2="560.5" y2="541.652" stroke="#5A5A5A"/>
<line x1="561" y1="541.5" x2="527.605" y2="541.5" stroke="#5A5A5A"/>
<line y1="-0.5" x2="68.1485" y2="-0.5" transform="matrix(0.689671 -0.724123 0.689671 0.724123 571 591)" stroke="#5A5A5A"/>
<line x1="617.5" y1="576.715" x2="617.5" y2="541.652" stroke="#5A5A5A"/>
<line x1="618" y1="541.5" x2="584.605" y2="541.5" stroke="#5A5A5A"/>
<line y1="-0.5" x2="68.1485" y2="-0.5" transform="matrix(0.689671 -0.724123 0.689671 0.724123 628 591)" stroke="#5A5A5A"/>
<line x1="674.5" y1="576.715" x2="674.5" y2="541.652" stroke="#5A5A5A"/>
<line x1="675" y1="541.5" x2="641.605" y2="541.5" stroke="#5A5A5A"/>
<line y1="-0.5" x2="68.1485" y2="-0.5" transform="matrix(0.689671 -0.724123 0.689671 0.724123 1 651)" stroke="#5A5A5A"/>
<line x1="47.5" y1="636.715" x2="47.5" y2="601.652" stroke="#5A5A5A"/>
<line x1="48" y1="601.5" x2="14.6053" y2="601.5" stroke="#5A5A5A"/>
<line y1="-0.5" x2="68.1485" y2="-0.5" transform="matrix(0.689671 -0.724123 0.689671 0.724123 58 651)" stroke="#5A5A5A"/>
<line x1="104.5" y1="636.715" x2="104.5" y2="601.652" stroke="#5A5A5A"/>
<line x1="105" y1="601.5" x2="71.6053" y2="601.5" stroke="#5A5A5A"/>
<line y1="-0.5" x2="68.1485" y2="-0.5" transform="matrix(0.689671 -0.724123 0.689671 0.724123 115 651)" stroke="#5A5A5A"/>
<line x1="161.5" y1="636.715" x2="161.5" y2="601.652" stroke="#5A5A5A"/>
<line x1="162" y1="601.5" x2="128.605" y2="601.5" stroke="#5A5A5A"/>
<line y1="-0.5" x2="68.1485" y2="-0.5" transform="matrix(0.689671 -0.724123 0.689671 0.724123 229 651)" stroke="#5A5A5A"/>
<line x1="275.5" y1="636.715" x2="275.5" y2="601.652" stroke="#5A5A5A"/>
<line x1="276" y1="601.5" x2="242.605" y2="601.5" stroke="#5A5A5A"/>
<line y1="-0.5" x2="68.1485" y2="-0.5" transform="matrix(0.689671 -0.724123 0.689671 0.724123 286 651)" stroke="#5A5A5A"/>
<line x1="332.5" y1="636.715" x2="332.5" y2="601.652" stroke="#5A5A5A"/>
<line x1="333" y1="601.5" x2="299.605" y2="601.5" stroke="#5A5A5A"/>
<line y1="-0.5" x2="68.1485" y2="-0.5" transform="matrix(0.689671 -0.724123 0.689671 0.724123 343 651)" stroke="#5A5A5A"/>
<line x1="389.5" y1="636.715" x2="389.5" y2="601.652" stroke="#5A5A5A"/>
<line x1="390" y1="601.5" x2="356.605" y2="601.5" stroke="#5A5A5A"/>
<line y1="-0.5" x2="68.1485" y2="-0.5" transform="matrix(0.689671 -0.724123 0.689671 0.724123 400 651)" stroke="#5A5A5A"/>
<line x1="446.5" y1="636.715" x2="446.5" y2="601.652" stroke="#5A5A5A"/>
<line x1="447" y1="601.5" x2="413.605" y2="601.5" stroke="#5A5A5A"/>
<line y1="-0.5" x2="68.1485" y2="-0.5" transform="matrix(0.689671 -0.724123 0.689671 0.724123 457 651)" stroke="#5A5A5A"/>
<line x1="503.5" y1="636.715" x2="503.5" y2="601.652" stroke="#5A5A5A"/>
<line x1="504" y1="601.5" x2="470.605" y2="601.5" stroke="#5A5A5A"/>
<line y1="-0.5" x2="68.1485" y2="-0.5" transform="matrix(0.689671 -0.724123 0.689671 0.724123 571 651)" stroke="#5A5A5A"/>
<line x1="617.5" y1="636.715" x2="617.5" y2="601.652" stroke="#5A5A5A"/>
<line x1="618" y1="601.5" x2="584.605" y2="601.5" stroke="#5A5A5A"/>
<line y1="-0.5" x2="68.1485" y2="-0.5" transform="matrix(0.689671 -0.724123 0.689671 0.724123 628 651)" stroke="#5A5A5A"/>
<line x1="674.5" y1="636.715" x2="674.5" y2="601.652" stroke="#5A5A5A"/>
<line x1="675" y1="601.5" x2="641.605" y2="601.5" stroke="#5A5A5A"/>
</svg>
