<svg width="45" height="45" viewBox="0 0 45 45" fill="none" xmlns="http://www.w3.org/2000/svg">
<rect x="0.5" y="0.5" width="44" height="44" fill="#84D04D"/>
<rect x="0.5" y="0.5" width="44" height="44" stroke="black"/>
<path d="M22.5 12.5C23.2826 12.5 23.9774 13.0008 24.2249 13.7432L25.9829 19.0171L31.2568 20.7751C31.9992 21.0226 32.5 21.7174 32.5 22.5C32.5 23.2826 31.9992 23.9774 31.2568 24.2249L25.9829 25.9829L24.2249 31.2568C23.9774 31.9992 23.2826 32.5 22.5 32.5C21.7174 32.5 21.0226 31.9992 20.7751 31.2568L19.0171 25.9829L13.7432 24.2249C13.0008 23.9774 12.5 23.2826 12.5 22.5C12.5 21.7174 13.0008 21.0226 13.7432 20.7751L19.0171 19.0171L20.7751 13.7432C21.0226 13.0008 21.7174 12.5 22.5 12.5Z" stroke="white" stroke-linecap="round" stroke-linejoin="round"/>
</svg>
