<svg width="68" height="82" viewBox="0 0 68 82" fill="none" xmlns="http://www.w3.org/2000/svg">
<path d="M18.2705 10.7151C18.2705 6.39051 21.3066 4.63764 25.0517 6.79992L51.0465 21.808C54.7917 23.9703 57.8277 29.2289 57.8277 33.5535V63.5696C57.8277 67.8942 54.7917 69.647 51.0465 67.4848L25.0518 52.4767C21.3066 50.3144 18.2705 45.0558 18.2705 40.7312V10.7151Z" fill="#E9ECE7"/>
<rect width="11.7455" height="30.0162" transform="matrix(0.866025 -0.5 0 1 57.8281 33.5527)" fill="#69AD38"/>
<rect width="30.0162" height="11.7455" transform="matrix(0.866025 0.5 -0.866025 0.5 35.2241 0.925781)" fill="#84D04D"/>
<path d="M20.2568 6.32435C21.581 5.55988 23.3164 5.79737 25.0519 6.79935L35.2238 0.926622C33.4883 -0.0753553 31.7528 -0.312852 30.4287 0.451626L20.2568 6.32435Z" fill="#84D04D"/>
<path d="M57.8281 33.5537C57.8281 29.2292 54.7921 23.9706 51.0469 21.8083L61.2187 15.9355C64.9639 18.0978 68 23.3564 68 27.681L57.8281 33.5537Z" fill="#69AD38"/>
<path d="M55.8418 67.9582C57.1659 67.1937 57.828 65.572 57.828 63.568L67.9998 57.6953C67.9998 59.6993 67.3378 61.321 66.0137 62.0854L55.8418 67.9582Z" fill="#69AD38"/>
<path d="M0 21.1545C0 16.83 3.03607 15.0771 6.78124 17.2394L32.776 32.2474C36.5212 34.4097 39.5572 39.6683 39.5572 43.9929V74.0091C39.5572 78.3336 36.5212 80.0865 32.776 77.9242L6.78124 62.9161C3.03607 60.7539 0 55.4952 0 51.1707V21.1545Z" fill="#EAEAEA"/>
<rect width="11.7455" height="30.0162" transform="matrix(0.866025 -0.5 0 1 39.5576 43.9941)" fill="#69AD38"/>
<rect width="30.0162" height="11.7455" transform="matrix(0.866025 0.5 -0.866025 0.5 16.9536 11.3672)" fill="#84D04D"/>
<path d="M1.98633 16.7638C3.31044 15.9993 5.04591 16.2368 6.78138 17.2388L16.9532 11.3661C15.2178 10.3641 13.4823 10.1266 12.1582 10.8911L1.98633 16.7638Z" fill="#84D04D"/>
<path d="M39.5571 43.9932C39.5571 39.6686 36.5211 34.41 32.7759 32.2477L42.9477 26.375C46.6929 28.5373 49.729 33.7959 49.729 38.1205L39.5571 43.9932Z" fill="#69AD38"/>
<path d="M37.5713 78.3996C38.8954 77.6351 39.5575 76.0134 39.5575 74.0094L49.7293 68.1367C49.7293 70.1407 49.0673 71.7624 47.7432 72.5269L37.5713 78.3996Z" fill="#69AD38"/>
<path d="M15.2081 47.4815L14.6119 47.1373C12.6845 46.0245 11.7208 45.4681 11.31 44.4971C10.8992 43.5263 11.2906 42.73 12.0734 41.1375L14.4268 36.3499C15.1385 34.9019 15.4944 34.178 16.1848 34.0558C16.8751 33.9336 17.7513 34.4394 19.5038 35.4512L22.218 37.0183C24.3469 38.2474 25.4113 38.8619 25.8127 39.8967C26.2143 40.9316 25.6862 41.6995 24.63 43.2352L23.2375 45.2597C22.7125 46.0232 22.4499 46.4049 22.4536 46.8436C22.4584 47.4137 22.7196 48.0872 23.1417 48.617C23.4664 49.0249 23.9955 49.3304 25.0538 49.9414C26.3917 50.7138 27.0607 51.1001 27.4091 51.5687C27.8617 52.1774 28.0987 52.9358 28.0157 53.5103C27.9517 53.9525 27.5018 54.2672 26.6018 54.8968L19.4115 59.9264C17.9992 60.9143 17.293 61.4082 16.8188 60.8492C16.3446 60.2899 16.5723 59.232 17.0277 57.116L17.9199 52.9712C18.2666 51.36 18.4401 50.5544 18.0231 49.7102C17.6061 48.866 16.8067 48.4045 15.2081 47.4815Z" stroke="#141B34" stroke-width="1.5" stroke-linejoin="round"/>
</svg>
