<svg width="96" height="85" viewBox="0 0 96 85" fill="none" xmlns="http://www.w3.org/2000/svg">
<mask id="mask0_2170_23114" style="mask-type:alpha" maskUnits="userSpaceOnUse" x="0" y="8" width="41" height="77">
<path d="M0 23.5C0 10.5213 9.11172 5.26065 20.3516 11.75C31.5915 18.2393 40.7032 34.0213 40.7032 47V85L0 61.5V23.5Z" fill="#93AAFC"/>
</mask>
<g mask="url(#mask0_2170_23114)">
<path d="M10.3926 17.5C10.3926 4.52131 19.5043 -0.739346 30.7442 5.75C41.9841 12.2393 51.0958 28.0213 51.0958 41V79L10.3926 55.5V17.5Z" fill="#EAEAEA"/>
<rect width="47" height="12" transform="matrix(0.866025 0.5 -0.866025 0.5 10.3926 55.5)" fill="#84D04D"/>
<path d="M0 61.5005V23.5005C0 17.2707 2.09934 12.8192 5.5257 10.5918L15.918 4.5918C12.4916 6.8192 10.3923 11.2707 10.3923 17.5005V55.5005L0 61.5005Z" fill="#69AD38"/>
</g>
<mask id="mask1_2170_23114" style="mask-type:alpha" maskUnits="userSpaceOnUse" x="55" y="8" width="41" height="77">
<path d="M55 47C55 34.0213 64.1117 18.2393 75.3516 11.75C86.5915 5.26065 95.7032 10.5213 95.7032 23.5V61.5L55 85V47Z" fill="#93AAFC"/>
</mask>
<g mask="url(#mask1_2170_23114)">
<path d="M44.6079 41C44.6079 28.0213 53.7196 12.2393 64.9595 5.75C76.1994 -0.739346 85.3111 4.52131 85.3111 17.5V55.5L44.6079 79V41Z" fill="#EAEAEA"/>
<rect width="47" height="12" transform="matrix(0.866025 -0.5 0.866025 0.5 44.6079 79)" fill="#69AD38"/>
<path d="M95.7032 61.5005V23.5005C95.7032 17.2707 93.6038 12.8192 90.1775 10.5918L79.7852 4.5918C83.2115 6.8192 85.3109 11.2707 85.3109 17.5005V55.5005L95.7032 61.5005Z" fill="#84D04D"/>
</g>
</svg>
