<svg width="75" height="94" viewBox="0 0 75 94" fill="none" xmlns="http://www.w3.org/2000/svg">
<circle cx="28" cy="28" r="28" transform="matrix(0.866025 0.5 0 1 17.6724 0.5)" fill="#EAEAEA"/>
<path d="M24.7744 12.8024C29.5093 10.0688 35.715 10.918 41.9208 14.501L50.5811 9.50096C44.3753 5.91804 38.1695 5.06879 33.4347 7.80245L24.7744 12.8024Z" fill="#84D04D"/>
<path d="M66.1696 56.5C66.1696 41.036 55.3131 22.232 41.9209 14.5L50.5812 9.5C63.9733 17.232 74.8299 36.036 74.8299 51.5L66.1696 56.5Z" fill="#69AD38"/>
<path d="M59.0674 72.1985C63.8022 69.4648 66.1696 63.6658 66.1696 56.5L74.8299 51.5C74.8299 58.6658 72.4625 64.4648 67.7276 67.1985L59.0674 72.1985Z" fill="#69AD38"/>
<circle cx="28" cy="28" r="28" transform="matrix(0.866025 0.5 0 1 0.401855 9.93945)" fill="#EAEAEA"/>
<path d="M7.50391 22.2419C12.2387 19.5082 18.4445 20.3575 24.6503 23.9404L33.3106 18.9404C27.1048 15.3575 20.899 14.5082 16.1642 17.2419L7.50391 22.2419Z" fill="#84D04D"/>
<path d="M48.8991 65.9395C48.8991 50.4755 38.0426 31.6714 24.6504 23.9395L33.3106 18.9395C46.7028 26.6714 57.5594 45.4755 57.5594 60.9395L48.8991 65.9395Z" fill="#69AD38"/>
<path d="M41.7969 81.6379C46.5317 78.9043 48.8991 73.1053 48.8991 65.9395L57.5594 60.9395C57.5594 68.1053 55.192 73.9043 50.4571 76.6379L41.7969 81.6379Z" fill="#69AD38"/>
<path d="M36.5789 59.5C36.5789 51.2157 30.7629 41.1421 23.5885 37C16.4141 32.8579 10.5981 36.2157 10.5981 44.5C10.5981 52.7842 16.4141 62.8579 23.5885 67C30.7629 71.1421 36.5789 67.7842 36.5789 59.5Z" stroke="#141B34" stroke-width="1.5"/>
<path d="M23.583 51.9961L23.5947 52.0028" stroke="#141B34" stroke-width="2" stroke-linecap="round" stroke-linejoin="round"/>
<path d="M23.5884 37V43" stroke="#141B34" stroke-width="1.5" stroke-linecap="round"/>
<path d="M36.579 59.5L31.3828 56.5" stroke="#141B34" stroke-width="1.5" stroke-linecap="round"/>
<path d="M23.5884 61V67" stroke="#141B34" stroke-width="1.5" stroke-linecap="round"/>
<path d="M15.7943 47.5L10.5981 44.5" stroke="#141B34" stroke-width="1.5" stroke-linecap="round"/>
</svg>
