<svg width="42" height="88" viewBox="0 0 42 88" fill="none" xmlns="http://www.w3.org/2000/svg">
<mask id="mask0_2170_23103" style="mask-type:alpha" maskUnits="userSpaceOnUse" x="0" y="0" width="42" height="88">
<rect width="48" height="64" transform="matrix(0.866025 0.5 0 1 0 0)" fill="#D9D9D9"/>
</mask>
<g mask="url(#mask0_2170_23103)">
<rect width="12" height="64" transform="matrix(0.866025 -0.5 0 1 0 0)" fill="#69AD38"/>
<rect width="48" height="12" transform="matrix(0.866025 0.5 -0.866025 0.5 10.3926 58)" fill="#84D04D"/>
<rect width="48" height="64" transform="matrix(0.866025 0.5 0 1 10.3926 -6)" fill="#EAEAEA"/>
</g>
<g clip-path="url(#clip0_2170_23103)">
<path d="M28.8492 27.0744C28.8492 27.0744 23.6969 23.566 22.8578 24.0504C22.0187 24.5348 22.4811 30.7511 22.4811 30.7511" stroke="black" stroke-width="1.5" stroke-linecap="round" stroke-linejoin="round"/>
<path d="M28.8492 53.781C28.8492 53.781 23.6969 51.3402 22.8578 49.8869C22.0187 48.4335 22.4811 42.7511 22.4811 42.7511" stroke="black" stroke-width="1.5" stroke-linecap="round" stroke-linejoin="round"/>
<path d="M39.2417 33.0744C39.2417 33.0744 44.3941 35.5154 45.2331 36.9687C46.0722 38.4219 45.6098 44.1044 45.6098 44.1044" stroke="black" stroke-width="1.5" stroke-linecap="round" stroke-linejoin="round"/>
<path d="M39.2417 59.781C39.2417 59.781 44.3941 63.2896 45.2331 62.8052C46.0722 62.3206 45.6098 56.1044 45.6098 56.1044" stroke="black" stroke-width="1.5" stroke-linecap="round" stroke-linejoin="round"/>
<path d="M36.6577 41.935L44.5191 37.3962" stroke="black" stroke-width="1.5" stroke-linecap="round" stroke-linejoin="round"/>
<path d="M31.4434 44.9281L23.1851 49.7276" stroke="black" stroke-width="1.5" stroke-linecap="round" stroke-linejoin="round"/>
<path d="M31.4438 38.9305L23.4526 25.1016" stroke="black" stroke-width="1.5" stroke-linecap="round" stroke-linejoin="round"/>
<path d="M36.6167 47.916L45.1233 62.5712" stroke="black" stroke-width="1.5" stroke-linecap="round" stroke-linejoin="round"/>
</g>
<defs>
<clipPath id="clip0_2170_23103">
<rect width="31.7046" height="31.7046" fill="white" transform="matrix(0.866025 0.5 0 1 14 17)"/>
</clipPath>
</defs>
</svg>
